<?xml version="1.0" encoding="UTF-8"?>
<!DOCTYPE svg PUBLIC "-//W3C//DTD SVG 1.1//EN" "http://www.w3.org/Graphics/SVG/1.1/DTD/svg11.dtd">
<!-- Creator: CorelDRAW X7 -->
<svg xmlns="http://www.w3.org/2000/svg" xml:space="preserve" width="1024px" height="768px" version="1.1" style="shape-rendering:geometricPrecision; text-rendering:geometricPrecision; image-rendering:optimizeQuality; fill-rule:evenodd; clip-rule:evenodd"
viewBox="0 0 102400 76800"
 xmlns:xlink="http://www.w3.org/1999/xlink">
 <defs>
  <style type="text/css">
   <![CDATA[
    .fil4 {fill:#E73635}
    .fil5 {fill:#2E2D2D}
    .fil3 {fill:#E73635}
    .fil6 {fill:#332C2B;fill-rule:nonzero}
    .fil7 {fill:#E73635;fill-rule:nonzero}
    .fil0 {fill:url(#id0)}
    .fil1 {fill:url(#id1)}
    .fil2 {fill:url(#id2)}
   ]]>
  </style>
  <linearGradient id="id0" gradientUnits="userSpaceOnUse" x1="94208" y1="81408" x2="8192.01" y2="-4607.96">
   <stop offset="0" style="stop-opacity:1; stop-color:#E6E7E8"/>
   <stop offset="1" style="stop-opacity:1; stop-color:#FEFEFE"/>
  </linearGradient>
  <radialGradient id="id1" gradientUnits="userSpaceOnUse" gradientTransform="matrix(9.256E-006 -1.29045 1.29045 9.25589E-006 -28316 65806)" cx="21237.5" cy="38400" r="9403.35" fx="21237.5" fy="38400">
   <stop offset="0" style="stop-opacity:1; stop-color:#252526"/>
   <stop offset="0.4" style="stop-opacity:1; stop-color:black"/>
   <stop offset="0.439216" style="stop-opacity:1; stop-color:#5E5E5E"/>
   <stop offset="0.858824" style="stop-opacity:1; stop-color:black"/>
   <stop offset="1" style="stop-opacity:1; stop-color:#333132"/>
  </radialGradient>
  <radialGradient id="id2" gradientUnits="userSpaceOnUse" gradientTransform="matrix(1.09527E-005 1.0139 -1.0139 1.09524E-005 60090 16787)" cx="21237.5" cy="38320.5" r="3973.35" fx="21237.5" fy="38320.5">
   <stop offset="0" style="stop-opacity:1; stop-color:#F20008"/>
   <stop offset="0.568627" style="stop-opacity:1; stop-color:#FF6363"/>
   <stop offset="1" style="stop-opacity:1; stop-color:#F7131B"/>
  </radialGradient>
 </defs>
 <g id="Layer_x0020_1">
  <metadata id="CorelCorpID_0Corel-Layer"/>
  <g id="_239465584">
   <polygon class="fil0" points="0,0 102400,0 102400,76800 0,76800 "/>
   <path class="fil1" d="M21238 28997c5193,0 9403,4210 9403,9403 0,5193 -4210,9403 -9403,9403 -5194,0 -9404,-4210 -9404,-9403 0,-5193 4210,-9403 9404,-9403zm0 4989c2437,0 4413,1976 4413,4414 0,2438 -1976,4414 -4413,4414 -2438,0 -4414,-1976 -4414,-4414 0,-2438 1976,-4414 4414,-4414z"/>
   <path class="fil2" d="M21238 34427c2194,0 3973,1779 3973,3973 0,2194 -1779,3973 -3973,3973 -2195,0 -3974,-1779 -3974,-3973 0,-2194 1779,-3973 3974,-3973zm0 2341c901,0 1631,731 1631,1632 0,901 -730,1632 -1631,1632 -902,0 -1632,-731 -1632,-1632 0,-901 730,-1632 1632,-1632z"/>
   <path class="fil3" d="M13682 47491c-2606,-2168 -4266,-5436 -4266,-9091 0,-3655 1660,-6923 4266,-9091 -1879,2341 -3038,5550 -3038,9091 0,3541 1159,6750 3038,9091z"/>
   <path class="fil3" d="M28793 29309c2606,2168 4266,5436 4266,9091 0,3655 -1660,6923 -4266,9091 1878,-2341 3038,-5550 3038,-9091 0,-3541 -1160,-6750 -3038,-9091z"/>
   <path class="fil3" d="M11838 48941c-2899,-2586 -4725,-6350 -4725,-10541 0,-4191 1826,-7955 4725,-10541 -2214,2743 -3573,6455 -3573,10541 0,4086 1359,7798 3573,10541z"/>
   <path class="fil3" d="M30637 27859c2899,2586 4725,6350 4725,10541 0,4191 -1826,7955 -4725,10541 2214,-2743 3573,-6455 3573,-10541 0,-4086 -1359,-7798 -3573,-10541z"/>
   <path class="fil3" d="M15353 44045c-1406,-1465 -2270,-3454 -2270,-5645 0,-2191 864,-4180 2270,-5645 -678,1634 -1071,3570 -1071,5645 0,2075 393,4011 1071,5645z"/>
   <path class="fil3" d="M27122 32755c1406,1465 2270,3454 2270,5645 0,2191 -864,4180 -2270,5645 678,-1634 1071,-3570 1071,-5645 0,-2075 -393,-4011 -1071,-5645z"/>
   <path class="fil3" d="M10171 50745c-3384,-3036 -5514,-7441 -5514,-12345 0,-4904 2130,-9309 5514,-12345 -2620,3210 -4228,7558 -4228,12345 0,4787 1608,9135 4228,12345z"/>
   <path class="fil4" d="M32304 26055c3384,3036 5514,7441 5514,12345 0,4904 -2130,9309 -5514,12345 2620,-3210 4228,-7558 4228,-12345 0,-4787 -1608,-9135 -4228,-12345z"/>
   <path class="fil5" d="M21238 36768c901,0 1631,731 1631,1632 0,901 -730,1632 -1631,1632 -902,0 -1632,-731 -1632,-1632 0,-901 730,-1632 1632,-1632z"/>
   <path class="fil6" d="M45931 40783l1905 0 0 648 -628 0 0 2799 -668 0 0 -2799 -609 0 0 -648zm2285 -86l638 0 0 1245c125,-108 250,-189 376,-243 125,-53 254,-80 382,-80 252,0 465,87 638,262 148,151 221,374 221,666l0 1683 -628 0 0 -1116c0,-295 -14,-495 -42,-599 -28,-105 -76,-182 -144,-234 -67,-51 -151,-77 -250,-77 -129,0 -240,43 -333,129 -92,85 -156,202 -192,350 -18,77 -28,252 -28,524l0 1023 -638 0 0 -3533zm5427 2438l-2052 0c29,182 108,327 236,435 128,107 292,160 491,160 238,0 442,-84 613,-252l536 254c-133,190 -294,331 -480,423 -188,91 -409,137 -666,137 -398,0 -723,-126 -974,-378 -250,-251 -376,-566 -376,-944 0,-388 126,-711 376,-967 251,-256 564,-384 943,-384 401,0 727,128 978,383 251,256 377,592 377,1012l-2 121zm-637 -499c-42,-139 -125,-253 -249,-340 -125,-87 -269,-130 -434,-130 -178,0 -334,49 -469,147 -84,61 -163,169 -235,323l1387 0zm4387 -955l639 0 0 2549 -639 0 0 -272c-124,119 -250,204 -375,256 -126,52 -263,78 -409,78 -331,0 -615,-127 -856,-382 -241,-255 -361,-572 -361,-950 0,-393 117,-714 350,-965 232,-251 515,-376 847,-376 154,0 297,28 432,85 134,57 258,143 372,257l0 -280zm-672 523c-199,0 -363,70 -494,210 -131,139 -197,318 -197,536 0,221 67,401 200,544 134,141 298,212 493,212 201,0 368,-69 500,-209 133,-139 199,-322 199,-549 0,-221 -66,-401 -199,-538 -132,-137 -300,-206 -502,-206zm1955 -523l638 0 0 262c145,-121 277,-205 395,-253 117,-47 238,-71 361,-71 253,0 468,88 644,264 148,150 222,372 222,664l0 1683 -633 0 0 -1115c0,-304 -14,-505 -41,-604 -27,-101 -75,-176 -142,-228 -68,-52 -152,-79 -251,-79 -130,0 -241,43 -334,130 -93,86 -157,206 -193,358 -18,80 -28,252 -28,517l0 1021 -638 0 0 -2549zm4772 0l633 0 0 2181c0,430 -87,747 -261,949 -232,275 -584,412 -1053,412 -250,0 -460,-31 -631,-93 -171,-63 -315,-155 -432,-276 -117,-121 -204,-268 -260,-442l708 0c62,71 143,125 242,162 98,36 215,54 350,54 173,0 312,-26 416,-79 106,-53 179,-121 223,-204 43,-84 65,-228 65,-433 -113,113 -232,194 -356,243 -124,50 -264,75 -420,75 -344,0 -634,-124 -871,-370 -237,-246 -355,-558 -355,-936 0,-404 126,-729 376,-973 228,-222 499,-332 814,-332 148,0 287,27 418,80 130,54 262,143 394,266l0 -284zm-670 538c-202,0 -370,67 -501,201 -132,135 -197,303 -197,506 0,212 67,385 202,521 134,135 304,202 508,202 199,0 363,-67 493,-199 129,-132 193,-304 193,-519 0,-211 -64,-382 -195,-514 -130,-132 -297,-198 -503,-198zm1947 -538l648 0 0 1226c0,238 17,403 50,496 32,93 85,165 158,217 73,51 163,77 270,77 106,0 197,-26 272,-76 74,-51 129,-125 165,-223 27,-74 40,-231 40,-471l0 -1246 639 0 0 1078c0,445 -36,749 -106,913 -86,200 -213,353 -380,460 -167,106 -380,160 -638,160 -280,0 -505,-62 -678,-187 -173,-125 -294,-299 -365,-522 -50,-154 -75,-435 -75,-842l0 -1060zm2814 -984l638 0 0 3533 -638 0 0 -3533zm3103 984l639 0 0 2549 -639 0 0 -272c-124,119 -250,204 -376,256 -125,52 -262,78 -408,78 -331,0 -616,-127 -856,-382 -241,-255 -361,-572 -361,-950 0,-393 117,-714 349,-965 233,-251 516,-376 848,-376 154,0 297,28 432,85 134,57 258,143 372,257l0 -280zm-672 523c-199,0 -364,70 -494,210 -131,139 -197,318 -197,536 0,221 67,401 200,544 134,141 298,212 493,212 201,0 368,-69 500,-209 133,-139 199,-322 199,-549 0,-221 -66,-401 -199,-538 -132,-137 -300,-206 -502,-206zm1806 -523l552 0 0 324c59,-127 137,-222 235,-288 98,-66 206,-98 322,-98 82,0 168,21 259,65l-199 552c-74,-37 -136,-56 -184,-56 -97,0 -180,61 -248,183 -68,121 -101,360 -101,715l2 124 0 1028 -638 0 0 -2549zm4913 0l639 0 0 2549 -639 0 0 -272c-125,119 -250,204 -376,256 -125,52 -262,78 -409,78 -330,0 -615,-127 -856,-382 -240,-255 -360,-572 -360,-950 0,-393 116,-714 349,-965 233,-251 515,-376 848,-376 154,0 297,28 431,85 135,57 259,143 373,257l0 -280zm-673 523c-198,0 -363,70 -493,210 -131,139 -197,318 -197,536 0,221 66,401 200,544 134,141 298,212 493,212 201,0 368,-69 500,-209 133,-139 199,-322 199,-549 0,-221 -66,-401 -199,-538 -132,-137 -300,-206 -503,-206zm1956 -523l648 0 0 1226c0,238 16,403 49,496 33,93 86,165 159,217 72,51 163,77 269,77 106,0 198,-26 272,-76 74,-51 130,-125 166,-223 26,-74 40,-231 40,-471l0 -1246 638 0 0 1078c0,445 -35,749 -106,913 -85,200 -212,353 -380,460 -167,106 -380,160 -637,160 -280,0 -506,-62 -678,-187 -173,-125 -295,-299 -365,-522 -51,-154 -75,-435 -75,-842l0 -1060zm4767 -984l638 0 0 3533 -638 0 0 -272c-125,119 -251,204 -377,256 -125,52 -262,78 -408,78 -331,0 -615,-127 -856,-382 -241,-255 -361,-572 -361,-950 0,-393 117,-714 350,-965 232,-251 515,-376 848,-376 153,0 296,28 431,85 134,58 258,144 373,259l0 -1266zm-673 1507c-199,0 -363,70 -494,210 -131,139 -197,318 -197,536 0,221 67,401 200,544 134,141 298,212 493,212 201,0 368,-69 500,-209 133,-139 199,-322 199,-549 0,-221 -66,-401 -199,-538 -132,-137 -300,-206 -502,-206zm2208 -1569c112,0 208,40 288,121 81,81 121,179 121,294 0,113 -40,210 -119,290 -79,80 -174,120 -286,120 -113,0 -210,-41 -290,-122 -81,-82 -121,-181 -121,-298 0,-112 40,-207 119,-286 80,-79 176,-119 288,-119zm-320 1046l638 0 0 2549 -638 0 0 -2549zm2416 -62c241,0 467,60 679,180 213,120 378,282 497,488 119,206 179,427 179,666 0,240 -60,464 -180,673 -119,208 -283,372 -489,489 -207,118 -434,177 -683,177 -367,0 -679,-130 -938,-389 -259,-260 -389,-575 -389,-945 0,-398 147,-729 440,-994 256,-230 551,-345 884,-345zm10 600c-199,0 -365,68 -497,206 -132,138 -198,314 -198,529 0,221 65,401 196,537 130,137 296,206 497,206 199,0 366,-70 499,-208 133,-138 200,-317 200,-535 0,-218 -66,-395 -196,-531 -131,-136 -298,-204 -501,-204zm3284 -1479l638 0 0 941 379 0 0 552 -379 0 0 1997 -638 0 0 -1997 -327 0 0 -552 327 0 0 -941zm2561 879c241,0 467,60 679,180 213,120 378,282 497,488 119,206 179,427 179,666 0,240 -60,464 -180,673 -120,208 -283,372 -489,489 -207,118 -435,177 -683,177 -367,0 -680,-130 -938,-389 -259,-260 -389,-575 -389,-945 0,-398 147,-729 439,-994 257,-230 552,-345 885,-345zm10 600c-199,0 -365,68 -497,206 -132,138 -198,314 -198,529 0,221 65,401 196,537 130,137 296,206 496,206 200,0 367,-70 500,-208 133,-138 200,-317 200,-535 0,-218 -66,-395 -196,-531 -131,-136 -298,-204 -501,-204zm3063 -600c241,0 467,60 679,180 213,120 378,282 497,488 119,206 178,427 178,666 0,240 -60,464 -179,673 -120,208 -283,372 -490,489 -207,118 -434,177 -683,177 -366,0 -679,-130 -937,-389 -260,-260 -389,-575 -389,-945 0,-398 146,-729 439,-994 257,-230 551,-345 885,-345zm9 600c-199,0 -364,68 -496,206 -132,138 -199,314 -199,529 0,221 66,401 196,537 131,137 296,206 497,206 200,0 366,-70 500,-208 133,-138 199,-317 199,-535 0,-218 -65,-395 -196,-531 -130,-136 -297,-204 -501,-204zm1797 -1522l638 0 0 3533 -638 0 0 -3533z"/>
   <path class="fil7" d="M59064 37942l1250 0 0 -6032 -1275 0 0 2241c0,584 8,1167 17,1742l-17 8c-375,-525 -741,-1033 -1133,-1558l-1808 -2433 -1250 0 0 6032 1275 0 0 -2241c0,-583 -8,-1166 -17,-1741l17 -9c375,525 742,1034 1133,1558l1808 2433zm2658 1625c358,175 875,300 1400,300 1308,0 2191,-717 2191,-2008l0 -4049 -992 175c-291,-142 -633,-234 -1024,-234 -1275,0 -2133,942 -2133,2142 0,1241 916,2008 1908,2008 341,0 716,-100 958,-275l17 8 0 225c0,608 -384,925 -1000,925 -434,0 -908,-158 -1325,-417l0 1200zm725 -3724c0,-534 316,-1017 975,-1017 225,0 466,67 625,150l0 1717c-176,108 -417,175 -642,175 -592,0 -958,-425 -958,-1025zm3432 2099l1358 0 492 -1266 2433 0 483 1266 1417 0 -2450 -6032 -1283 0 -2450 6032zm2500 -2949c192,-508 408,-1108 566,-1566l17 0c159,458 375,1058 550,1533l250 674 -1625 0 242 -641zm4557 2633c234,241 592,408 1067,408 533,0 933,-208 1250,-483l16 8 0 383 1250 0 0 -4099 -1266 0 0 2741c-200,192 -517,367 -834,367 -174,0 -341,-59 -449,-183 -109,-117 -159,-292 -159,-592l0 -2333 -1266 0 0 2525c0,608 125,983 391,1258zm4425 -1650c0,1258 891,2058 1924,2058 400,0 767,-125 1042,-317l16 9 0 216 1242 0 0 -6365 -1267 0 0 2316 -16 8c-217,-91 -467,-150 -775,-150 -1225,0 -2166,934 -2166,2225zm1274 -58c0,-617 359,-1117 1025,-1117 250,0 475,67 658,159l0 1833c-183,116 -433,208 -708,208 -625,0 -975,-475 -975,-1083zm3900 -3375c0,400 333,725 733,725 400,0 733,-325 733,-725 0,-400 -333,-725 -733,-725 -400,0 -733,325 -733,725zm100 5399l1266 0 0 -4099 -1266 0 0 4099zm3324 -2049c0,-584 442,-1050 1016,-1050 575,0 1017,466 1017,1050 0,583 -442,1050 -1017,1050 -574,0 -1016,-467 -1016,-1050zm-1266 0c0,1208 974,2141 2282,2141 1308,0 2283,-933 2283,-2141 0,-1208 -975,-2142 -2283,-2142 -1308,0 -2282,934 -2282,2142z"/>
  </g>
 </g>
</svg>
